<svg width="204" height="284" viewBox="0 0 204 284" fill="none" xmlns="http://www.w3.org/2000/svg">
<g filter="url(#filter0_d)">
<path d="M5 270.243V42.2427L17 11.7427H186L199 42.2427V270.243C199 277.843 190.333 279.076 186 278.743H17C9.4 278.743 5.83333 273.076 5 270.243Z" fill="#B9C7B6" stroke="#555555"/>
<g filter="url(#filter1_d)">
<mask id="path-2-inside-1" fill="white">
<path fill-rule="evenodd" clip-rule="evenodd" d="M103 268.243C154.362 268.243 196 226.605 196 175.243C196 123.88 154.362 82.2427 103 82.2427C51.6375 82.2427 10 123.88 10 175.243C10 226.605 51.6375 268.243 103 268.243ZM42.8146 140.989C41.7132 143.202 42.1692 145.861 43.8816 147.644L51.2711 155.336C53.5667 157.726 57.3614 157.806 59.7511 155.51L73.8951 141.923L88.0355 128.34C90.4252 126.044 90.5015 122.246 88.2059 119.856L80.8213 112.169C79.1065 110.384 76.4628 109.823 74.2055 110.838C58.3201 117.985 50.5817 125.383 42.8146 140.989ZM120.319 115.179C121.832 113.224 124.396 112.383 126.746 113.149C143.321 118.547 151.772 125.119 161.168 139.786C162.503 141.871 162.336 144.568 160.821 146.526L154.297 154.956C152.27 157.577 148.501 158.058 145.88 156.03L130.373 144.031L114.861 132.029C112.241 130.001 111.764 126.236 113.792 123.615L120.319 115.179ZM51.61 221.357C53.3278 223.134 55.9867 223.593 58.2389 222.574L67.9582 218.179C70.9776 216.814 72.3205 213.264 70.9551 210.245L62.8742 192.374L54.7953 174.508C53.43 171.489 49.8755 170.148 46.8561 171.514L37.1432 175.906C34.8878 176.926 33.4758 179.23 33.679 181.697C35.1085 199.057 39.4957 208.822 51.61 221.357ZM133.269 233.365C133.385 235.849 131.96 238.16 129.656 239.093C113.18 245.76 102.268 246.243 85.2492 241.161C82.8637 240.449 81.2259 238.278 81.1099 235.791L80.6145 225.172C80.4601 221.861 83.0184 219.053 86.3285 218.898L106.414 217.962L126.505 217.024C129.816 216.87 132.619 219.429 132.773 222.739L133.269 233.365ZM172.988 175.01C172.863 172.527 171.146 170.423 168.762 169.718L158.561 166.701C155.383 165.762 152.047 167.571 151.107 170.748L145.403 190.036L139.701 209.318C138.762 212.496 140.576 215.834 143.754 216.773L153.948 219.788C156.336 220.494 158.924 219.659 160.379 217.639C170.761 203.228 173.883 192.761 172.988 175.01Z"/>
</mask>
<path fill-rule="evenodd" clip-rule="evenodd" d="M103 268.243C154.362 268.243 196 226.605 196 175.243C196 123.88 154.362 82.2427 103 82.2427C51.6375 82.2427 10 123.88 10 175.243C10 226.605 51.6375 268.243 103 268.243ZM42.8146 140.989C41.7132 143.202 42.1692 145.861 43.8816 147.644L51.2711 155.336C53.5667 157.726 57.3614 157.806 59.7511 155.51L73.8951 141.923L88.0355 128.34C90.4252 126.044 90.5015 122.246 88.2059 119.856L80.8213 112.169C79.1065 110.384 76.4628 109.823 74.2055 110.838C58.3201 117.985 50.5817 125.383 42.8146 140.989ZM120.319 115.179C121.832 113.224 124.396 112.383 126.746 113.149C143.321 118.547 151.772 125.119 161.168 139.786C162.503 141.871 162.336 144.568 160.821 146.526L154.297 154.956C152.27 157.577 148.501 158.058 145.88 156.03L130.373 144.031L114.861 132.029C112.241 130.001 111.764 126.236 113.792 123.615L120.319 115.179ZM51.61 221.357C53.3278 223.134 55.9867 223.593 58.2389 222.574L67.9582 218.179C70.9776 216.814 72.3205 213.264 70.9551 210.245L62.8742 192.374L54.7953 174.508C53.43 171.489 49.8755 170.148 46.8561 171.514L37.1432 175.906C34.8878 176.926 33.4758 179.23 33.679 181.697C35.1085 199.057 39.4957 208.822 51.61 221.357ZM133.269 233.365C133.385 235.849 131.96 238.16 129.656 239.093C113.18 245.76 102.268 246.243 85.2492 241.161C82.8637 240.449 81.2259 238.278 81.1099 235.791L80.6145 225.172C80.4601 221.861 83.0184 219.053 86.3285 218.898L106.414 217.962L126.505 217.024C129.816 216.87 132.619 219.429 132.773 222.739L133.269 233.365ZM172.988 175.01C172.863 172.527 171.146 170.423 168.762 169.718L158.561 166.701C155.383 165.762 152.047 167.571 151.107 170.748L145.403 190.036L139.701 209.318C138.762 212.496 140.576 215.834 143.754 216.773L153.948 219.788C156.336 220.494 158.924 219.659 160.379 217.639C170.761 203.228 173.883 192.761 172.988 175.01Z" fill="#C4C4C4" fill-opacity="0.5"/>
<path d="M43.8816 147.644L43.1604 148.336L43.1604 148.336L43.8816 147.644ZM42.8146 140.989L41.9193 140.543L41.9193 140.543L42.8146 140.989ZM51.2711 155.336L50.5499 156.029L50.5499 156.029L51.2711 155.336ZM59.7511 155.51L59.0584 154.789L59.0584 154.789L59.7511 155.51ZM73.8951 141.923L74.5878 142.644L74.5878 142.644L73.8951 141.923ZM88.0355 128.34L88.7282 129.061L88.7282 129.061L88.0355 128.34ZM88.2059 119.856L87.4848 120.549L87.4848 120.549L88.2059 119.856ZM80.8213 112.169L81.5424 111.476L81.5424 111.476L80.8213 112.169ZM74.2055 110.838L73.7951 109.926L73.7951 109.926L74.2055 110.838ZM126.746 113.149L126.437 114.1L126.437 114.1L126.746 113.149ZM120.319 115.179L121.11 115.791L121.11 115.791L120.319 115.179ZM161.168 139.786L160.326 140.326L160.326 140.326L161.168 139.786ZM160.821 146.526L161.612 147.138L161.612 147.138L160.821 146.526ZM154.297 154.956L153.507 154.344L153.507 154.344L154.297 154.956ZM145.88 156.03L146.492 155.239L146.492 155.239L145.88 156.03ZM130.373 144.031L129.761 144.822L129.761 144.822L130.373 144.031ZM114.861 132.029L115.473 131.238L115.473 131.238L114.861 132.029ZM113.792 123.615L114.583 124.227L114.583 124.227L113.792 123.615ZM58.2389 222.574L57.8269 221.663L57.8269 221.663L58.2389 222.574ZM51.61 221.357L50.8909 222.052L50.8909 222.052L51.61 221.357ZM67.9582 218.179L67.5462 217.268L67.5462 217.268L67.9582 218.179ZM70.9551 210.245L71.8663 209.833L71.8663 209.833L70.9551 210.245ZM62.8742 192.374L61.963 192.786L61.963 192.786L62.8742 192.374ZM54.7953 174.508L53.8841 174.92L53.8841 174.92L54.7953 174.508ZM46.8561 171.514L46.4441 170.602L46.8561 171.514ZM37.1432 175.906L36.7312 174.995L36.7312 174.995L37.1432 175.906ZM33.679 181.697L34.6756 181.615L34.6756 181.615L33.679 181.697ZM129.656 239.093L130.031 240.02L130.031 240.02L129.656 239.093ZM133.269 233.365L134.268 233.319L134.268 233.319L133.269 233.365ZM85.2492 241.161L84.9631 242.12L84.9631 242.12L85.2492 241.161ZM81.1099 235.791L82.1088 235.745L82.1088 235.745L81.1099 235.791ZM80.6145 225.172L81.6135 225.125L81.6135 225.125L80.6145 225.172ZM86.3285 218.898L86.3751 219.897L86.3751 219.897L86.3285 218.898ZM106.414 217.962L106.461 218.961L106.461 218.961L106.414 217.962ZM126.505 217.024L126.552 218.023L126.552 218.023L126.505 217.024ZM132.773 222.739L133.772 222.692L133.772 222.692L132.773 222.739ZM168.762 169.718L168.479 170.677L168.479 170.677L168.762 169.718ZM172.988 175.01L171.989 175.06L171.989 175.06L172.988 175.01ZM158.561 166.701L158.844 165.743L158.561 166.701ZM151.107 170.748L150.148 170.465L150.148 170.465L151.107 170.748ZM145.403 190.036L146.362 190.319L146.362 190.319L145.403 190.036ZM139.701 209.318L138.742 209.034L138.742 209.034L139.701 209.318ZM143.754 216.773L143.47 217.732L143.47 217.732L143.754 216.773ZM153.948 219.788L154.232 218.829L154.232 218.829L153.948 219.788ZM160.379 217.639L159.568 217.054L159.568 217.054L160.379 217.639ZM195 175.243C195 226.053 153.81 267.243 103 267.243V269.243C154.915 269.243 197 227.158 197 175.243H195ZM103 83.2427C153.81 83.2427 195 124.433 195 175.243H197C197 123.328 154.915 81.2427 103 81.2427V83.2427ZM11 175.243C11 124.433 52.1898 83.2427 103 83.2427V81.2427C51.0852 81.2427 9 123.328 9 175.243H11ZM103 267.243C52.1898 267.243 11 226.053 11 175.243H9C9 227.158 51.0852 269.243 103 269.243V267.243ZM44.6027 146.951C43.1712 145.461 42.8041 143.254 43.7098 141.434L41.9193 140.543C40.6223 143.149 41.1672 146.261 43.1604 148.336L44.6027 146.951ZM51.9923 154.643L44.6027 146.951L43.1604 148.336L50.5499 156.029L51.9923 154.643ZM59.0584 154.789C57.0677 156.701 53.906 156.636 51.9923 154.643L50.5499 156.029C53.2274 158.816 57.6551 158.91 60.4439 156.231L59.0584 154.789ZM73.2023 141.202L59.0584 154.789L60.4439 156.231L74.5878 142.644L73.2023 141.202ZM87.3427 127.619L73.2023 141.202L74.5878 142.644L88.7282 129.061L87.3427 127.619ZM87.4848 120.549C89.3978 122.541 89.3342 125.706 87.3427 127.619L88.7282 129.061C91.5163 126.383 91.6053 121.952 88.9271 119.164L87.4848 120.549ZM80.1001 112.862L87.4848 120.549L88.9271 119.164L81.5424 111.476L80.1001 112.862ZM74.6158 111.75C76.4725 110.915 78.6666 111.369 80.1001 112.862L81.5424 111.476C79.5463 109.398 76.4531 108.731 73.7951 109.926L74.6158 111.75ZM43.7098 141.434C47.5624 133.694 51.3773 128.051 56.1581 123.463C60.939 118.875 66.7353 115.296 74.6158 111.75L73.7951 109.926C65.7903 113.528 59.7747 117.221 54.7733 122.02C49.7718 126.819 45.8339 132.678 41.9193 140.543L43.7098 141.434ZM127.056 112.198C124.288 111.296 121.289 112.291 119.528 114.567L121.11 115.791C122.375 114.156 124.504 113.47 126.437 114.1L127.056 112.198ZM162.01 139.247C157.275 131.856 152.741 126.446 147.262 122.201C141.781 117.956 135.41 114.919 127.056 112.198L126.437 114.1C134.658 116.777 140.799 119.725 146.037 123.782C151.275 127.84 155.665 133.049 160.326 140.326L162.01 139.247ZM161.612 147.138C163.375 144.859 163.582 141.701 162.01 139.247L160.326 140.326C161.424 142.04 161.296 144.277 160.03 145.914L161.612 147.138ZM155.088 155.568L161.612 147.138L160.03 145.914L153.507 154.344L155.088 155.568ZM145.268 156.821C148.326 159.187 152.723 158.626 155.088 155.568L153.507 154.344C151.817 156.528 148.676 156.929 146.492 155.239L145.268 156.821ZM129.761 144.822L145.268 156.821L146.492 155.239L130.985 143.24L129.761 144.822ZM114.249 132.82L129.761 144.822L130.985 143.24L115.473 131.238L114.249 132.82ZM113.001 123.003C110.636 126.06 111.191 130.453 114.249 132.82L115.473 131.238C113.29 129.549 112.892 126.412 114.583 124.227L113.001 123.003ZM119.528 114.567L113.001 123.003L114.583 124.227L121.11 115.791L119.528 114.567ZM57.8269 221.663C55.9441 222.515 53.7417 222.124 52.329 220.662L50.8909 222.052C52.9139 224.145 56.0293 224.671 58.651 223.486L57.8269 221.663ZM67.5462 217.268L57.8269 221.663L58.651 223.486L68.3703 219.091L67.5462 217.268ZM70.044 210.657C71.1813 213.172 70.0633 216.13 67.5462 217.268L68.3703 219.091C71.8919 217.498 73.4597 213.356 71.8663 209.833L70.044 210.657ZM61.963 192.786L70.044 210.657L71.8663 209.833L63.7854 191.962L61.963 192.786ZM53.8841 174.92L61.963 192.786L63.7854 191.962L55.7065 174.096L53.8841 174.92ZM47.2682 172.425C49.7843 171.287 52.7464 172.404 53.8841 174.92L55.7065 174.096C54.1136 170.574 49.9667 169.01 46.4441 170.602L47.2682 172.425ZM37.5552 176.817L47.2682 172.425L46.4441 170.602L36.7312 174.995L37.5552 176.817ZM34.6756 181.615C34.5085 179.586 35.6699 177.669 37.5552 176.817L36.7312 174.995C34.1057 176.182 32.4432 178.874 32.6823 181.779L34.6756 181.615ZM52.329 220.662C46.3203 214.445 42.2759 208.964 39.5491 202.925C36.8221 196.886 35.3847 190.227 34.6756 181.615L32.6823 181.779C33.4027 190.527 34.8737 197.431 37.7263 203.748C40.5791 210.066 44.7854 215.735 50.8909 222.052L52.329 220.662ZM130.031 240.02C132.744 238.922 134.402 236.209 134.268 233.319L132.27 233.412C132.367 235.488 131.176 237.399 129.281 238.166L130.031 240.02ZM84.9631 242.12C93.5368 244.68 100.637 245.858 107.702 245.532C114.767 245.206 121.729 243.379 130.031 240.02L129.281 238.166C121.106 241.474 114.375 243.222 107.61 243.534C100.845 243.846 93.9802 242.725 85.5353 240.203L84.9631 242.12ZM80.111 235.838C80.246 238.733 82.155 241.281 84.9631 242.12L85.5353 240.203C83.5724 239.617 82.2057 237.823 82.1088 235.745L80.111 235.838ZM79.6156 225.218L80.111 235.838L82.1088 235.745L81.6135 225.125L79.6156 225.218ZM86.2819 217.9C82.4201 218.08 79.4355 221.356 79.6156 225.218L81.6135 225.125C81.4848 222.366 83.6166 220.026 86.3751 219.897L86.2819 217.9ZM106.368 216.963L86.2819 217.9L86.3751 219.897L106.461 218.961L106.368 216.963ZM126.459 216.026L106.368 216.963L106.461 218.961L126.552 218.023L126.459 216.026ZM133.772 222.692C133.592 218.831 130.322 215.845 126.459 216.026L126.552 218.023C129.309 217.895 131.645 220.026 131.774 222.785L133.772 222.692ZM134.268 233.319L133.772 222.692L131.774 222.785L132.27 233.412L134.268 233.319ZM168.479 170.677C170.471 171.266 171.886 173.018 171.989 175.06L173.987 174.959C173.839 172.036 171.821 169.58 169.046 168.759L168.479 170.677ZM158.277 167.66L168.479 170.677L169.046 168.759L158.844 165.743L158.277 167.66ZM152.066 171.032C152.849 168.385 155.628 166.877 158.277 167.66L158.844 165.743C155.138 164.647 151.245 166.756 150.148 170.465L152.066 171.032ZM146.362 190.319L152.066 171.032L150.148 170.465L144.445 189.752L146.362 190.319ZM140.66 209.602L146.362 190.319L144.445 189.752L138.742 209.034L140.66 209.602ZM144.037 215.814C141.389 215.031 139.877 212.25 140.66 209.602L138.742 209.034C137.646 212.742 139.763 216.636 143.47 217.732L144.037 215.814ZM154.232 218.829L144.037 215.814L143.47 217.732L153.665 220.747L154.232 218.829ZM159.568 217.054C158.37 218.716 156.228 219.419 154.232 218.829L153.665 220.747C156.444 221.569 159.478 220.601 161.191 218.223L159.568 217.054ZM171.989 175.06C172.434 183.867 171.877 190.8 169.954 197.293C168.03 203.786 164.719 209.903 159.568 217.054L161.191 218.223C166.421 210.963 169.862 204.642 171.871 197.861C173.88 191.08 174.438 183.904 173.987 174.959L171.989 175.06Z" fill="#555555" mask="url(#path-2-inside-1)"/>
</g>
<circle cx="103" cy="175.243" r="55" fill="#555555"/>
<path d="M21.5 20.7427C20.5328 21.4291 19.4932 22.4963 18.5235 23.9666C17.0663 30.9851 21.9859 48.2625 30.5 63.7427C39.3 79.7427 56.8333 134.743 64.5 160.243C64 175.076 62.6 200.743 61 184.743C59 164.743 37 103.743 21.5 67.7427C11.4212 44.334 14.3132 30.3505 18.5235 23.9666C18.949 21.9174 19.9181 20.7427 21.5 20.7427Z" fill="#282828"/>
<g filter="url(#filter2_d)">
<circle cx="103" cy="175.243" r="43" fill="#C4C4C4"/>
<circle cx="103" cy="175.243" r="42.5" stroke="white"/>
</g>
<g filter="url(#filter3_i)">
<circle cx="103" cy="175.243" r="28" fill="#DEDEDE"/>
</g>
<circle cx="103" cy="175.243" r="25" stroke="#E1E1E1" stroke-width="6"/>
<rect x="92.2975" y="165.21" width="6" height="12" rx="3" transform="rotate(-31.6554 92.2975 165.21)" fill="#EFEFEF"/>
<rect x="115.946" y="169.313" width="6" height="12" rx="3" transform="rotate(79.097 115.946 169.313)" fill="#EFEFEF"/>
<rect x="98.3887" y="190.098" width="6" height="12" rx="3" transform="rotate(-151.448 98.3887 190.098)" fill="#EFEFEF"/>
<path d="M108 175.243C108 178.004 105.761 180.243 103 180.243C100.239 180.243 98 178.004 98 175.243C98 172.481 100.239 170.243 103 170.243C105.761 170.243 108 172.481 108 175.243Z" fill="#555555"/>
<g filter="url(#filter4_d)">
<circle cx="159" cy="34.2427" r="20" fill="#555555"/>
<circle cx="159" cy="34.2427" r="11" fill="#DEDEDE"/>
<path d="M164 34.2427C164 37.0042 161.761 39.2427 159 39.2427C156.239 39.2427 154 37.0042 154 34.2427C154 31.4813 156.239 29.2427 159 29.2427C161.761 29.2427 164 31.4813 164 34.2427Z" fill="#555555"/>
</g>
<circle r="5.5" transform="matrix(-1 0 0 1 24 26.2427)" fill="#DEDEDE" stroke="#606060"/>
<path d="M20.5 21.7427C22.1667 13.4094 33.2 -1.05726 64 7.74274C102.5 18.7427 134.5 18.2427 157 15.2427" stroke="#555555"/>
</g>
<defs>
<filter id="filter0_d" x="0.5" y="0.500061" width="203" height="282.791" filterUnits="userSpaceOnUse" color-interpolation-filters="sRGB">
<feFlood flood-opacity="0" result="BackgroundImageFix"/>
<feColorMatrix in="SourceAlpha" type="matrix" values="0 0 0 0 0 0 0 0 0 0 0 0 0 0 0 0 0 0 127 0"/>
<feOffset/>
<feGaussianBlur stdDeviation="2"/>
<feColorMatrix type="matrix" values="0 0 0 0 0 0 0 0 0 0 0 0 0 0 0 0 0 0 0.25 0"/>
<feBlend mode="normal" in2="BackgroundImageFix" result="effect1_dropShadow"/>
<feBlend mode="normal" in="SourceGraphic" in2="effect1_dropShadow" result="shape"/>
</filter>
<filter id="filter1_d" x="10" y="82.2427" width="188" height="188" filterUnits="userSpaceOnUse" color-interpolation-filters="sRGB">
<feFlood flood-opacity="0" result="BackgroundImageFix"/>
<feColorMatrix in="SourceAlpha" type="matrix" values="0 0 0 0 0 0 0 0 0 0 0 0 0 0 0 0 0 0 127 0"/>
<feOffset dx="1" dy="1"/>
<feGaussianBlur stdDeviation="0.5"/>
<feColorMatrix type="matrix" values="0 0 0 0 0 0 0 0 0 0 0 0 0 0 0 0 0 0 0.25 0"/>
<feBlend mode="normal" in2="BackgroundImageFix" result="effect1_dropShadow"/>
<feBlend mode="normal" in="SourceGraphic" in2="effect1_dropShadow" result="shape"/>
</filter>
<filter id="filter2_d" x="56" y="128.243" width="94" height="94" filterUnits="userSpaceOnUse" color-interpolation-filters="sRGB">
<feFlood flood-opacity="0" result="BackgroundImageFix"/>
<feColorMatrix in="SourceAlpha" type="matrix" values="0 0 0 0 0 0 0 0 0 0 0 0 0 0 0 0 0 0 127 0"/>
<feOffset/>
<feGaussianBlur stdDeviation="2"/>
<feColorMatrix type="matrix" values="0 0 0 0 0 0 0 0 0 0 0 0 0 0 0 0 0 0 0.25 0"/>
<feBlend mode="normal" in2="BackgroundImageFix" result="effect1_dropShadow"/>
<feBlend mode="normal" in="SourceGraphic" in2="effect1_dropShadow" result="shape"/>
</filter>
<filter id="filter3_i" x="75" y="147.243" width="56" height="56" filterUnits="userSpaceOnUse" color-interpolation-filters="sRGB">
<feFlood flood-opacity="0" result="BackgroundImageFix"/>
<feBlend mode="normal" in="SourceGraphic" in2="BackgroundImageFix" result="shape"/>
<feColorMatrix in="SourceAlpha" type="matrix" values="0 0 0 0 0 0 0 0 0 0 0 0 0 0 0 0 0 0 127 0" result="hardAlpha"/>
<feOffset/>
<feGaussianBlur stdDeviation="5"/>
<feComposite in2="hardAlpha" operator="arithmetic" k2="-1" k3="1"/>
<feColorMatrix type="matrix" values="0 0 0 0 0 0 0 0 0 0 0 0 0 0 0 0 0 0 0.5 0"/>
<feBlend mode="normal" in2="shape" result="effect1_innerShadow"/>
</filter>
<filter id="filter4_d" x="139" y="14.2427" width="42" height="42" filterUnits="userSpaceOnUse" color-interpolation-filters="sRGB">
<feFlood flood-opacity="0" result="BackgroundImageFix"/>
<feColorMatrix in="SourceAlpha" type="matrix" values="0 0 0 0 0 0 0 0 0 0 0 0 0 0 0 0 0 0 127 0"/>
<feOffset dx="1" dy="1"/>
<feGaussianBlur stdDeviation="0.5"/>
<feColorMatrix type="matrix" values="0 0 0 0 0 0 0 0 0 0 0 0 0 0 0 0 0 0 0.15 0"/>
<feBlend mode="normal" in2="BackgroundImageFix" result="effect1_dropShadow"/>
<feBlend mode="normal" in="SourceGraphic" in2="effect1_dropShadow" result="shape"/>
</filter>
</defs>
</svg>
